{
	"asset":{
		"generator":"Khronos glTF Blender I/O v3.6.27",
		"version":"2.0"
	},
	"extensionsUsed":[
		"KHR_materials_emissive_strength"
	],
	"scene":0,
	"scenes":[
		{
			"extras":{
				"assets used":{},
				"uuid":"77e13e24-f9f2-489b-8e22-b7b92bbeb1eb",
				"assets reported":{},
				"geocables_message":"",
				"geocables_link":"",
				"rtm_props":{
					"material_category":12
				},
				"by_tool":{},
				"scatter5":{
					"emitter":null,
					"operators":{
						"create_operators":{
							"f_display_custom_placeholder_ptr":{}
						},
						"add_psy_density":{},
						"add_psy_preset":{
							"preset_name":"31 Forest",
							"preset_path":"C:\\Users\\Ryder\\AppData\\Roaming\\Blender Foundation\\Blender\\data\\scatter library\\_presets_\\31_forest.preset",
							"preset_color":[
								0.024210525676608086,
								0.1627102792263031,
								0.022306373342871666
							],
							"estimated_preset_density":0.044599998742341995,
							"estimated_preset_keyword":" random local",
							"f_mask_assign_curve_area":{},
							"f_mask_paint_curve_area":{}
						},
						"add_psy_manual":{},
						"add_psy_modal":{
							"f_mask_action_method":3,
							"f_mask_action_type":1,
							"f_mask_assign_curve_area":{},
							"f_mask_paint_curve_area":{}
						},
						"load_biome":{
							"f_mask_assign_curve_area":{},
							"f_mask_paint_curve_area":{},
							"progress_context":"",
							"progress_bar":0.0,
							"progress_label":""
						}
					},
					"factory_event_listening_allow":1,
					"factory_delay_allow":0,
					"factory_synchronization_allow":0
				},
				"dream_textures_prompt":{},
				"dream_textures_project_prompt":{},
				"rpr":{
					"saved_addon_version":[
						3,
						5,
						0
					]
				},
				"seamless_result":{
					"image":{}
				},
				"blenderkit":{
					"category":1,
					"name":"Simple Lighting",
					"name_changed":1,
					"name_old":"Simple Lighting",
					"description":"Super easy lighting for anything you need. Just add your model or product and render.\r\n\r\nHave fun! :)",
					"thumbnail":"//..\\..\\..\\Desktop\\Save.jpg",
					"has_thumbnail":1,
					"thumbnail_generating_state":"",
					"tags":"easy, lighting, render, simple",
					"report":"",
					"upload_state":"",
					"is_private":0,
					"asset_base_id":"2d3edff0-47f6-4bd6-9d1b-cbde69378c65",
					"id":"0cff6340-e69b-4675-a444-c9628c43c137",
					"uploading":0
				},
				"asset_data":{
					"thumbnail":"thumbnail_fb93a105-cc07-4c4d-a38b-8faa1aa55c35.jpg.512x512_q85_crop-%2C.jpg.webp",
					"thumbnail_small":"thumbnail_fb93a105-cc07-4c4d-a38b-8faa1aa55c35.jpg.256x256_q85_crop-%2C.jpg.webp",
					"downloaded":0,
					"pk":53920,
					"url":"https://www.blenderkit.com/api/v1/assets/0cff6340-e69b-4675-a444-c9628c43c137/",
					"id":"0cff6340-e69b-4675-a444-c9628c43c137",
					"assetBaseId":"2d3edff0-47f6-4bd6-9d1b-cbde69378c65",
					"versionNumber":1,
					"author":{
						"id":"118979",
						"firstName":"Ryder",
						"lastName":"Booth",
						"gravatarHash":"79c75a905111c50829a903c9d7dbd6fa",
						"avatar128":"/avatar-redirect/061eecfa-f1c7-4c08-a911-ac8b9990d7d2/128/",
						"aboutMe":"Doing this for fun on the side.",
						"aboutMeUrl":"https://www.instagram.com/ryderb_photography/",
						"fullName":"Ryder Booth"
					},
					"name":"Simple Lighting",
					"displayName":"Simple Lighting",
					"description":"Super easy lighting for anything you need. Just add your model or product and render.\r\n\r\nHave fun! :)",
					"assetType":"scene",
					"category":"product-visualization",
					"adult":false,
					"isFree":true,
					"tags":[
						"easy",
						"lighting",
						"render",
						"simple"
					],
					"license":"royalty_free",
					"sourceAppName":"blender",
					"sourceAppVersion":"3.5.0",
					"addonVersion":"3.5.2",
					"created":"2023-05-18T07:34:42.196334+02:00",
					"lastUserInteraction":"2023-05-18T07:34:51.120449+02:00",
					"verificationStatus":"validated",
					"isPrivate":false,
					"files":[
						{
							"fileType":"blend",
							"downloadUrl":"https://www.blenderkit.com/api/v1/downloads/196597/",
							"fileThumbnail":null,
							"fileThumbnailLarge":null,
							"created":"2023-05-18T07:34:50.449754+02:00",
							"modified":"2023-05-18T07:37:04.317014+02:00",
							"mimeType":null,
							"resolution":null,
							"url":"https://public.blenderkit.com/public-assets/assets/0cff6340e69b4675a444c9628c43c137/files/blend_22fcf9e9-b6c8-46e4-a699-3afcbee0f661.blend",
							"file_name":"blend_22fcf9e9-b6c8-46e4-a699-3afcbee0f661.blend"
						},
						{
							"fileType":"thumbnail",
							"downloadUrl":"https://www.blenderkit.com/api/v1/downloads/196596/",
							"fileThumbnail":"https://public.blenderkit.com/thumbnails/assets/0cff6340e69b4675a444c9628c43c137/files/thumbnail_fb93a105-cc07-4c4d-a38b-8faa1aa55c35.jpg.96x96_q85_crop-%2C.jpg",
							"fileThumbnailLarge":"https://public.blenderkit.com/thumbnails/assets/0cff6340e69b4675a444c9628c43c137/files/thumbnail_fb93a105-cc07-4c4d-a38b-8faa1aa55c35.jpg.1024x1024_q85_crop-%2C.jpg",
							"created":"2023-05-18T07:34:49.102101+02:00",
							"modified":"2023-05-18T07:34:51.522500+02:00",
							"mimeType":null,
							"resolution":null
						}
					],
					"filesSize":99,
					"thumbnailSmallUrl":"https://public.blenderkit.com/thumbnails/assets/0cff6340e69b4675a444c9628c43c137/files/thumbnail_fb93a105-cc07-4c4d-a38b-8faa1aa55c35.jpg.256x256_q85_crop-%2C.jpg",
					"thumbnailMiddleUrl":"https://public.blenderkit.com/thumbnails/assets/0cff6340e69b4675a444c9628c43c137/files/thumbnail_fb93a105-cc07-4c4d-a38b-8faa1aa55c35.jpg.512x512_q85_crop-%2C.jpg",
					"thumbnailLargeUrl":"https://public.blenderkit.com/thumbnails/assets/0cff6340e69b4675a444c9628c43c137/files/thumbnail_fb93a105-cc07-4c4d-a38b-8faa1aa55c35.jpg.1024x1024_q85_crop-%2C.jpg",
					"thumbnailXlargeUrl":"https://public.blenderkit.com/thumbnails/assets/0cff6340e69b4675a444c9628c43c137/files/thumbnail_fb93a105-cc07-4c4d-a38b-8faa1aa55c35.jpg.2048x2048_q85_crop-%2C.jpg",
					"thumbnailSmallUrlNonsquared":"https://public.blenderkit.com/thumbnails/assets/0cff6340e69b4675a444c9628c43c137/files/thumbnail_fb93a105-cc07-4c4d-a38b-8faa1aa55c35.jpg.256x256_q85.jpg",
					"thumbnailMiddleUrlNonsquared":"https://public.blenderkit.com/thumbnails/assets/0cff6340e69b4675a444c9628c43c137/files/thumbnail_fb93a105-cc07-4c4d-a38b-8faa1aa55c35.jpg.512x512_q85.jpg",
					"thumbnailLargeUrlNonsquared":"https://public.blenderkit.com/thumbnails/assets/0cff6340e69b4675a444c9628c43c137/files/thumbnail_fb93a105-cc07-4c4d-a38b-8faa1aa55c35.jpg.1024x1024_q85.jpg",
					"thumbnailXlargeUrlNonsquared":"https://public.blenderkit.com/thumbnails/assets/0cff6340e69b4675a444c9628c43c137/files/thumbnail_fb93a105-cc07-4c4d-a38b-8faa1aa55c35.jpg.2048x2048_q85.jpg",
					"thumbnailSmallUrlWebp":"https://public.blenderkit.com/thumbnails/assets/0cff6340e69b4675a444c9628c43c137/files/thumbnail_fb93a105-cc07-4c4d-a38b-8faa1aa55c35.jpg.256x256_q85_crop-%2C.jpg.webp?webp_generated=1691019360",
					"thumbnailMiddleUrlWebp":"https://public.blenderkit.com/thumbnails/assets/0cff6340e69b4675a444c9628c43c137/files/thumbnail_fb93a105-cc07-4c4d-a38b-8faa1aa55c35.jpg.512x512_q85_crop-%2C.jpg.webp?webp_generated=1691019360",
					"thumbnailLargeUrlWebp":"https://public.blenderkit.com/thumbnails/assets/0cff6340e69b4675a444c9628c43c137/files/thumbnail_fb93a105-cc07-4c4d-a38b-8faa1aa55c35.jpg.1024x1024_q85_crop-%2C.jpg.webp?webp_generated=1691019360",
					"thumbnailXlargeUrlWebp":"https://public.blenderkit.com/thumbnails/assets/0cff6340e69b4675a444c9628c43c137/files/thumbnail_fb93a105-cc07-4c4d-a38b-8faa1aa55c35.jpg.2048x2048_q85_crop-%2C.jpg.webp?webp_generated=1691019360",
					"thumbnailSmallUrlNonsquaredWebp":"https://public.blenderkit.com/thumbnails/assets/0cff6340e69b4675a444c9628c43c137/files/thumbnail_fb93a105-cc07-4c4d-a38b-8faa1aa55c35.jpg.256x256_q85.jpg.webp?webp_generated=1691019360",
					"thumbnailMiddleUrlNonsquaredWebp":"https://public.blenderkit.com/thumbnails/assets/0cff6340e69b4675a444c9628c43c137/files/thumbnail_fb93a105-cc07-4c4d-a38b-8faa1aa55c35.jpg.512x512_q85.jpg.webp?webp_generated=1691019360",
					"thumbnailLargeUrlNonsquaredWebp":"https://public.blenderkit.com/thumbnails/assets/0cff6340e69b4675a444c9628c43c137/files/thumbnail_fb93a105-cc07-4c4d-a38b-8faa1aa55c35.jpg.1024x1024_q85.jpg.webp?webp_generated=1691019360",
					"thumbnailXlargeUrlNonsquaredWebp":"https://public.blenderkit.com/thumbnails/assets/0cff6340e69b4675a444c9628c43c137/files/thumbnail_fb93a105-cc07-4c4d-a38b-8faa1aa55c35.jpg.2048x2048_q85.jpg.webp?webp_generated=1691019360",
					"showMarketingLabels":true,
					"webpGeneratedTimestamp":1691019360,
					"score":270.0,
					"ratingsMedian":{
						"competition-2022-votes":null,
						"quality":10.0,
						"workingHours":3.0,
						"virtualPrice":null,
						"bookmarks":1.0
					},
					"ratingsAverage":{
						"competition-2022-votes":null,
						"quality":9.0,
						"workingHours":3.0,
						"virtualPrice":null,
						"bookmarks":1.0
					},
					"ratingsCount":{
						"competition-2022-votes":0,
						"quality":4,
						"workingHours":4,
						"virtualPrice":0,
						"bookmarks":91
					},
					"ratingsSum":{
						"competition-2022-votes":null,
						"quality":36.0,
						"workingHours":17.0,
						"virtualPrice":null,
						"bookmarks":91.0
					},
					"lastBlendUpload":"2023-05-18T05:34:50.449754+00:00",
					"lastGltfUpload":null,
					"lastZipFileUpload":null,
					"lastThumbnailUpload":"2023-05-18T05:34:49.102101+00:00",
					"lastVideoUpload":null,
					"lastResolutionUpload":null,
					"dictParameters":{
						"faceCount":1,
						"productionLevel":"finished",
						"modelStyle":"realistic",
						"condition":"new",
						"shaders":[
							""
						],
						"uv":false,
						"engines":[
							"cycles"
						],
						"modifiers":[
							""
						],
						"materials":[
							""
						],
						"faceCountRender":1,
						"objectCount":1,
						"imageCaptionInterrogator":"a close up of a red sports car in a dark room, colorful redshift render, empty background, race, 3dexcite, lurking in the shadows, elegant render, justify content center, shrouded in darkness, featured on dribble, standing in a dimly lit room, in game"
					},
					"canDownload":true,
					"canDownloadError":true,
					"available_resolutions":[],
					"max_resolution":0,
					"resolution":"resolution_2K"
				}
			},
			"name":"Scene",
			"nodes":[
				0,
				1
			]
		}
	],
	"nodes":[
		{
			"mesh":0,
			"name":"Modern Living Room_Bowl_0",
			"rotation":[
				-0.7071070075035095,
				0,
				0,
				0.7071065902709961
			],
			"scale":[
				1.5366120338439941,
				1.5366122722625732,
				1.5366122722625732
			],
			"translation":[
				2.344358444213867,
				0.974112331867218,
				0
			]
		},
		{
			"mesh":1,
			"name":"Modern Living Room_CoffeeTable_0",
			"rotation":[
				-0.7071070075035095,
				0,
				0,
				0.7071065902709961
			],
			"scale":[
				1.5366120338439941,
				1.5366122722625732,
				1.5366122722625732
			],
			"translation":[
				2.344358444213867,
				0.974112331867218,
				0
			]
		}
	],
	"materials":[
		{
			"doubleSided":true,
			"emissiveFactor":[
				1,
				1,
				1
			],
			"emissiveTexture":{
				"index":0
			},
			"extensions":{
				"KHR_materials_emissive_strength":{
					"emissiveStrength":2
				}
			},
			"name":"Bowl",
			"pbrMetallicRoughness":{
				"baseColorTexture":{
					"index":1
				},
				"metallicFactor":0,
				"roughnessFactor":0.8211145401000977
			}
		},
		{
			"doubleSided":true,
			"emissiveFactor":[
				1,
				1,
				1
			],
			"emissiveTexture":{
				"index":2
			},
			"name":"CoffeeTable.001",
			"pbrMetallicRoughness":{
				"baseColorTexture":{
					"index":3
				},
				"metallicFactor":0,
				"roughnessFactor":0.8209999799728394
			}
		}
	],
	"meshes":[
		{
			"name":"Modern Living Room_Bowl_0",
			"primitives":[
				{
					"attributes":{
						"POSITION":0,
						"NORMAL":1,
						"TEXCOORD_0":2,
						"TEXCOORD_1":3,
						"TEXCOORD_2":4
					},
					"indices":5,
					"material":0
				}
			]
		},
		{
			"name":"Modern Living Room_CoffeeTable_0",
			"primitives":[
				{
					"attributes":{
						"POSITION":6,
						"NORMAL":7,
						"TEXCOORD_0":8,
						"TEXCOORD_1":9,
						"TEXCOORD_2":10
					},
					"indices":11,
					"material":1
				}
			]
		}
	],
	"textures":[
		{
			"sampler":0,
			"source":0
		},
		{
			"sampler":0,
			"source":0
		},
		{
			"sampler":0,
			"source":1
		},
		{
			"sampler":0,
			"source":1
		}
	],
	"images":[
		{
			"mimeType":"image/png",
			"name":"Bowl_baseColor",
			"uri":"../textures/Bowl_baseColor.png"
		},
		{
			"mimeType":"image/png",
			"name":"CoffeeTable_baseColor",
			"uri":"../textures/CoffeeTable_baseColor.png"
		}
	],
	"accessors":[
		{
			"bufferView":0,
			"componentType":5126,
			"count":445,
			"max":[
				-1.4447542428970337,
				0.09442298114299774,
				-0.2781258523464203
			],
			"min":[
				-1.63352370262146,
				-0.09409856796264648,
				-0.35162055492401123
			],
			"type":"VEC3"
		},
		{
			"bufferView":1,
			"componentType":5126,
			"count":445,
			"type":"VEC3"
		},
		{
			"bufferView":2,
			"componentType":5126,
			"count":445,
			"type":"VEC2"
		},
		{
			"bufferView":3,
			"componentType":5126,
			"count":445,
			"type":"VEC2"
		},
		{
			"bufferView":4,
			"componentType":5126,
			"count":445,
			"type":"VEC2"
		},
		{
			"bufferView":5,
			"componentType":5123,
			"count":1764,
			"type":"SCALAR"
		},
		{
			"bufferView":6,
			"componentType":5126,
			"count":166,
			"max":[
				-0.9895917177200317,
				0.30785050988197327,
				-0.35265910625457764
			],
			"min":[
				-2.088548183441162,
				-0.3077739477157593,
				-0.6338498592376709
			],
			"type":"VEC3"
		},
		{
			"bufferView":7,
			"componentType":5126,
			"count":166,
			"type":"VEC3"
		},
		{
			"bufferView":8,
			"componentType":5126,
			"count":166,
			"type":"VEC2"
		},
		{
			"bufferView":9,
			"componentType":5126,
			"count":166,
			"type":"VEC2"
		},
		{
			"bufferView":10,
			"componentType":5126,
			"count":166,
			"type":"VEC2"
		},
		{
			"bufferView":11,
			"componentType":5123,
			"count":312,
			"type":"SCALAR"
		}
	],
	"bufferViews":[
		{
			"buffer":0,
			"byteLength":5340,
			"byteOffset":0,
			"target":34962
		},
		{
			"buffer":0,
			"byteLength":5340,
			"byteOffset":5340,
			"target":34962
		},
		{
			"buffer":0,
			"byteLength":3560,
			"byteOffset":10680,
			"target":34962
		},
		{
			"buffer":0,
			"byteLength":3560,
			"byteOffset":14240,
			"target":34962
		},
		{
			"buffer":0,
			"byteLength":3560,
			"byteOffset":17800,
			"target":34962
		},
		{
			"buffer":0,
			"byteLength":3528,
			"byteOffset":21360,
			"target":34963
		},
		{
			"buffer":0,
			"byteLength":1992,
			"byteOffset":24888,
			"target":34962
		},
		{
			"buffer":0,
			"byteLength":1992,
			"byteOffset":26880,
			"target":34962
		},
		{
			"buffer":0,
			"byteLength":1328,
			"byteOffset":28872,
			"target":34962
		},
		{
			"buffer":0,
			"byteLength":1328,
			"byteOffset":30200,
			"target":34962
		},
		{
			"buffer":0,
			"byteLength":1328,
			"byteOffset":31528,
			"target":34962
		},
		{
			"buffer":0,
			"byteLength":624,
			"byteOffset":32856,
			"target":34963
		}
	],
	"samplers":[
		{
			"magFilter":9729,
			"minFilter":9987
		}
	],
	"buffers":[
		{
			"byteLength":33480,
			"uri":"table-1.bin"
		}
	]
}
