{
	"asset":{
		"generator":"Khronos glTF Blender I/O v3.6.27",
		"version":"2.0"
	},
	"extensionsUsed":[
		"KHR_materials_emissive_strength"
	],
	"scene":0,
	"scenes":[
		{
			"extras":{
				"assets used":{}
			},
			"name":"Scene",
			"nodes":[
				0,
				1
			]
		}
	],
	"nodes":[
		{
			"mesh":0,
			"name":"Modern Living Room_Bowl_0",
			"rotation":[
				-0.7071069478988647,
				0,
				0,
				0.7071066498756409
			],
			"scale":[
				1.5366120338439941,
				1.5366122722625732,
				1.5366122722625732
			],
			"translation":[
				-0.2945674657821655,
				-0.04910425841808319,
				0
			]
		},
		{
			"mesh":1,
			"name":"Modern Living Room_CoffeeTable_0",
			"rotation":[
				-0.7071069478988647,
				0,
				0,
				0.7071066498756409
			],
			"scale":[
				1.5366120338439941,
				1.5366122722625732,
				1.5366122722625732
			],
			"translation":[
				-0.2945674657821655,
				-0.04910425841808319,
				0
			]
		}
	],
	"materials":[
		{
			"doubleSided":true,
			"emissiveFactor":[
				1,
				1,
				1
			],
			"emissiveTexture":{
				"index":0
			},
			"extensions":{
				"KHR_materials_emissive_strength":{
					"emissiveStrength":2
				}
			},
			"name":"Bowl",
			"pbrMetallicRoughness":{
				"baseColorTexture":{
					"index":1
				},
				"metallicFactor":0,
				"roughnessFactor":0.8211145401000977
			}
		},
		{
			"doubleSided":true,
			"emissiveFactor":[
				1,
				1,
				1
			],
			"emissiveTexture":{
				"index":2
			},
			"name":"CoffeeTable",
			"pbrMetallicRoughness":{
				"baseColorTexture":{
					"index":3
				},
				"metallicFactor":0,
				"roughnessFactor":0.8209999799728394
			}
		}
	],
	"meshes":[
		{
			"name":"Modern Living Room_Bowl_0",
			"primitives":[
				{
					"attributes":{
						"POSITION":0,
						"NORMAL":1,
						"TEXCOORD_0":2,
						"TEXCOORD_1":3,
						"TEXCOORD_2":4
					},
					"indices":5,
					"material":0
				}
			]
		},
		{
			"name":"Modern Living Room_CoffeeTable_0",
			"primitives":[
				{
					"attributes":{
						"POSITION":6,
						"NORMAL":7,
						"TEXCOORD_0":8,
						"TEXCOORD_1":9,
						"TEXCOORD_2":10
					},
					"indices":11,
					"material":1
				}
			]
		}
	],
	"textures":[
		{
			"sampler":0,
			"source":0
		},
		{
			"sampler":0,
			"source":0
		},
		{
			"sampler":0,
			"source":1
		},
		{
			"sampler":0,
			"source":1
		}
	],
	"images":[
		{
			"mimeType":"image/png",
			"name":"Bowl_baseColor",
			"uri":"textures/Bowl_baseColor.png"
		},
		{
			"mimeType":"image/png",
			"name":"CoffeeTable_baseColor",
			"uri":"textures/CoffeeTable_baseColor.png"
		}
	],
	"accessors":[
		{
			"bufferView":0,
			"componentType":5126,
			"count":445,
			"max":[
				-1.4447542428970337,
				0.09442298114299774,
				-0.2781258523464203
			],
			"min":[
				-1.63352370262146,
				-0.09409856796264648,
				-0.35162055492401123
			],
			"type":"VEC3"
		},
		{
			"bufferView":1,
			"componentType":5126,
			"count":445,
			"type":"VEC3"
		},
		{
			"bufferView":2,
			"componentType":5126,
			"count":445,
			"type":"VEC2"
		},
		{
			"bufferView":3,
			"componentType":5126,
			"count":445,
			"type":"VEC2"
		},
		{
			"bufferView":4,
			"componentType":5126,
			"count":445,
			"type":"VEC2"
		},
		{
			"bufferView":5,
			"componentType":5123,
			"count":1764,
			"type":"SCALAR"
		},
		{
			"bufferView":6,
			"componentType":5126,
			"count":166,
			"max":[
				-0.9895917177200317,
				0.30785050988197327,
				-0.35265910625457764
			],
			"min":[
				-2.088548183441162,
				-0.3077739477157593,
				-0.6338498592376709
			],
			"type":"VEC3"
		},
		{
			"bufferView":7,
			"componentType":5126,
			"count":166,
			"type":"VEC3"
		},
		{
			"bufferView":8,
			"componentType":5126,
			"count":166,
			"type":"VEC2"
		},
		{
			"bufferView":9,
			"componentType":5126,
			"count":166,
			"type":"VEC2"
		},
		{
			"bufferView":10,
			"componentType":5126,
			"count":166,
			"type":"VEC2"
		},
		{
			"bufferView":11,
			"componentType":5123,
			"count":312,
			"type":"SCALAR"
		}
	],
	"bufferViews":[
		{
			"buffer":0,
			"byteLength":5340,
			"byteOffset":0,
			"target":34962
		},
		{
			"buffer":0,
			"byteLength":5340,
			"byteOffset":5340,
			"target":34962
		},
		{
			"buffer":0,
			"byteLength":3560,
			"byteOffset":10680,
			"target":34962
		},
		{
			"buffer":0,
			"byteLength":3560,
			"byteOffset":14240,
			"target":34962
		},
		{
			"buffer":0,
			"byteLength":3560,
			"byteOffset":17800,
			"target":34962
		},
		{
			"buffer":0,
			"byteLength":3528,
			"byteOffset":21360,
			"target":34963
		},
		{
			"buffer":0,
			"byteLength":1992,
			"byteOffset":24888,
			"target":34962
		},
		{
			"buffer":0,
			"byteLength":1992,
			"byteOffset":26880,
			"target":34962
		},
		{
			"buffer":0,
			"byteLength":1328,
			"byteOffset":28872,
			"target":34962
		},
		{
			"buffer":0,
			"byteLength":1328,
			"byteOffset":30200,
			"target":34962
		},
		{
			"buffer":0,
			"byteLength":1328,
			"byteOffset":31528,
			"target":34962
		},
		{
			"buffer":0,
			"byteLength":624,
			"byteOffset":32856,
			"target":34963
		}
	],
	"samplers":[
		{
			"magFilter":9729,
			"minFilter":9987
		}
	],
	"buffers":[
		{
			"byteLength":33480,
			"uri":"table.bin"
		}
	]
}
