<?xml version="1.0" encoding="UTF-8" standalone="no"?>
<!DOCTYPE svg PUBLIC "-//W3C//DTD SVG 1.1//EN" "http://www.w3.org/Graphics/SVG/1.1/DTD/svg11.dtd">
<svg xmlns="http://www.w3.org/2000/svg" version="1.1" viewBox="0.00 0.00 272.00 245.00">
<g stroke-width="2.00" fill="none" stroke-linecap="butt">
<path stroke="#7c7c7c" vector-effect="non-scaling-stroke" d="
  M 66.44 231.87
  L 203.34 231.87
  A 0.97 0.97 0.0 0 0 204.31 230.90
  L 204.31 82.41
  A 70.12 69.38 90.0 0 0 134.93 12.29
  L 134.85 12.29
  A 70.12 69.38 90.0 0 0 65.47 82.41
  L 65.47 230.90
  A 0.97 0.97 0.0 0 0 66.44 231.87"
/>
<path stroke="#7c7c7c" vector-effect="non-scaling-stroke" d="
  M 69.39 228.76
  L 200.43 228.76
  A 0.74 0.74 0.0 0 0 201.17 228.02
  L 201.17 82.32
  A 66.92 66.21 -90.0 0 0 134.96 15.40
  L 134.86 15.40
  A 66.92 66.21 90.0 0 0 68.65 82.32
  L 68.65 228.02
  A 0.74 0.74 0.0 0 0 69.39 228.76"
/>
<path stroke="#7c7c7c" vector-effect="non-scaling-stroke" d="
  M 72.79 225.90
  L 197.03 225.90
  A 1.35 1.35 0.0 0 0 198.38 224.55
  L 198.38 82.56
  A 64.28 63.47 -90.0 0 0 134.91 18.28
  L 134.91 18.28
  A 64.28 63.47 -90.0 0 0 71.44 82.56
  L 71.44 224.55
  A 1.35 1.35 0.0 0 0 72.79 225.90"
/>
<path stroke="#7c7c7c" vector-effect="non-scaling-stroke" d="
  M 148.04 153.46
  C 154.57 153.28 160.86 153.60 167.38 152.93
  Q 167.99 152.87 168.10 153.47
  L 170.71 168.18
  A 1.60 1.55 49.5 0 1 170.66 168.98
  L 170.52 169.44
  Q 170.34 170.01 170.94 170.01
  L 176.46 170.00
  Q 177.44 170.00 177.58 170.96
  L 177.63 171.25
  Q 177.81 172.49 176.56 172.49
  L 167.90 172.49
  Q 167.28 172.49 167.40 173.11
  L 176.86 222.23
  A 0.64 0.64 0.0 0 0 177.49 222.75
  L 194.71 222.75
  A 0.39 0.38 0.0 0 0 195.10 222.37
  Q 195.07 151.86 195.12 81.37
  C 195.14 48.65 168.99 22.73 136.48 21.37
  A 0.38 0.37 -88.6 0 0 136.09 21.75
  L 136.14 54.01
  Q 136.14 54.38 136.51 54.44
  Q 155.42 57.59 157.22 76.69
  Q 157.35 78.02 156.01 78.02
  L 113.27 78.04
  Q 112.71 78.04 112.69 77.48
  C 112.38 65.41 121.32 55.71 133.28 54.59
  A 0.37 0.36 87.5 0 0 133.61 54.22
  L 133.61 21.98
  A 0.55 0.55 0.0 0 0 133.05 21.43
  C 105.64 22.30 81.98 41.71 76.07 68.55
  Q 74.74 74.63 74.74 85.56
  Q 74.73 154.01 74.75 222.27
  A 0.49 0.49 0.0 0 0 75.24 222.76
  L 90.76 222.75
  Q 91.28 222.75 91.38 222.24
  L 100.90 173.00
  A 0.42 0.42 0.0 0 0 100.49 172.50
  L 92.97 172.49
  Q 91.95 172.49 92.04 171.47
  L 92.09 171.01
  Q 92.18 169.96 93.24 169.97
  L 102.01 170.05
  Q 102.94 170.06 102.20 169.50
  Q 99.00 167.06 99.19 162.95
  A 0.53 0.52 -88.2 0 1 99.71 162.45
  C 103.63 162.46 109.93 161.49 113.22 163.92
  Q 114.31 164.73 113.93 166.04
  Q 113.46 167.62 111.79 167.55
  Q 110.70 167.51 109.84 168.18
  L 108.49 169.23
  Q 107.49 170.00 108.75 170.00
  L 147.01 169.99
  Q 147.52 169.99 147.52 169.49
  L 147.50 154.01
  Q 147.50 153.48 148.04 153.46"
/>
<path stroke="#7c7c7c" vector-effect="non-scaling-stroke" d="
  M 154.66 75.05
  C 151.29 51.13 117.86 51.34 115.28 74.99
  Q 115.22 75.52 115.75 75.52
  L 154.24 75.54
  Q 154.73 75.54 154.66 75.05"
/>
<path stroke="#7c7c7c" vector-effect="non-scaling-stroke" d="
  M 166.6726 155.7532
  A 0.85 0.85 0.0 0 0 165.6891 155.0620
  L 165.3739 155.1170
  A 0.85 0.85 0.0 0 0 164.6827 156.1005
  L 166.6874 167.5868
  A 0.85 0.85 0.0 0 0 167.6709 168.2780
  L 167.9861 168.2230
  A 0.85 0.85 0.0 0 0 168.6773 167.2395
  L 166.6726 155.7532"
/>
<path stroke="#7c7c7c" vector-effect="non-scaling-stroke" d="
  M 151.4894 156.0363
  A 0.81 0.81 0.0 0 0 150.6766 155.2291
  L 150.1366 155.2310
  A 0.81 0.81 0.0 0 0 149.3294 156.0438
  L 149.3706 167.8437
  A 0.81 0.81 0.0 0 0 150.1834 168.6509
  L 150.7234 168.6490
  A 0.81 0.81 0.0 0 0 151.5306 167.8362
  L 151.4894 156.0363"
/>
<path stroke="#7c7c7c" vector-effect="non-scaling-stroke" d="
  M 156.5508 155.6917
  A 0.43 0.43 0.0 0 0 156.1215 155.2609
  L 155.1015 155.2591
  A 0.43 0.43 0.0 0 0 154.6708 155.6884
  L 154.6492 168.0483
  A 0.43 0.43 0.0 0 0 155.0785 168.4791
  L 156.0985 168.4809
  A 0.43 0.43 0.0 0 0 156.5292 168.0516
  L 156.5508 155.6917"
/>
<path stroke="#7c7c7c" vector-effect="non-scaling-stroke" d="
  M 161.76 156.03
  A 0.80 0.80 0.0 0 0 160.96 155.23
  L 160.52 155.23
  A 0.80 0.80 0.0 0 0 159.72 156.03
  L 159.72 167.85
  A 0.80 0.80 0.0 0 0 160.52 168.65
  L 160.96 168.65
  A 0.80 0.80 0.0 0 0 161.76 167.85
  L 161.76 156.03"
/>
<path stroke="#7c7c7c" vector-effect="non-scaling-stroke" d="
  M 164.12 169.98
  L 164.87 169.90
  A 0.19 0.19 0.0 0 0 165.04 169.69
  L 165.02 169.53
  A 5.59 0.51 83.5 0 0 163.88 164.03
  L 163.76 164.05
  A 5.59 0.51 83.5 0 0 163.89 169.66
  L 163.91 169.82
  A 0.19 0.19 0.0 0 0 164.12 169.98"
/>
<path stroke="#7c7c7c" vector-effect="non-scaling-stroke" d="
  M 101.95 164.28
  A 0.86 0.86 0.0 0 0 101.28 165.68
  L 103.12 167.97
  A 0.86 0.86 0.0 0 0 103.82 168.29
  L 106.69 168.19
  A 0.86 0.86 0.0 0 0 107.32 167.89
  L 109.18 165.72
  A 0.86 0.86 0.0 0 0 108.54 164.30
  L 101.95 164.28"
/>
<path stroke="#7c7c7c" vector-effect="non-scaling-stroke" d="
  M 103.83 172.49
  A 0.41 0.41 0.0 0 0 103.43 172.82
  L 93.97 222.27
  A 0.41 0.41 0.0 0 0 94.38 222.76
  L 173.83 222.76
  A 0.41 0.41 0.0 0 0 174.23 222.27
  L 164.91 172.82
  A 0.41 0.41 0.0 0 0 164.51 172.49
  L 103.83 172.49"
/>
<path stroke="#7c7c7c" vector-effect="non-scaling-stroke" d="
  M 104.69 158.01
  C 104.29 156.36 103.86 154.73 103.47 153.06
  Q 103.28 152.25 103.27 153.00
  Q 103.23 155.46 103.88 157.84
  A 1.34 1.30 -39.4 0 1 103.77 158.79
  L 103.16 159.93
  Q 102.64 160.91 103.73 160.70
  Q 105.27 160.40 104.69 158.01"
/>
<path stroke="#7c7c7c" vector-effect="non-scaling-stroke" d="
  M 106.34 155.31
  Q 107.32 158.97 105.90 159.96
  Q 105.69 160.11 105.71 160.36
  Q 105.72 160.55 105.86 160.68
  Q 106.13 160.93 106.49 160.84
  C 109.18 160.17 107.75 156.39 106.68 155.13
  Q 106.12 154.47 106.34 155.31"
/>
</g>
<path fill="#f4f4f4" d="
  M 0.00 0.00
  L 272.00 0.00
  L 272.00 245.00
  L 0.00 245.00
  L 0.00 0.00
  Z
  M 66.44 231.87
  L 203.34 231.87
  A 0.97 0.97 0.0 0 0 204.31 230.90
  L 204.31 82.41
  A 70.12 69.38 90.0 0 0 134.93 12.29
  L 134.85 12.29
  A 70.12 69.38 90.0 0 0 65.47 82.41
  L 65.47 230.90
  A 0.97 0.97 0.0 0 0 66.44 231.87
  Z"
/>
<path fill="#030303" d="
  M 66.44 231.87
  A 0.97 0.97 0.0 0 1 65.47 230.90
  L 65.47 82.41
  A 70.12 69.38 90.0 0 1 134.85 12.29
  L 134.93 12.29
  A 70.12 69.38 -90.0 0 1 204.31 82.41
  L 204.31 230.90
  A 0.97 0.97 0.0 0 1 203.34 231.87
  L 66.44 231.87
  Z
  M 69.39 228.76
  L 200.43 228.76
  A 0.74 0.74 0.0 0 0 201.17 228.02
  L 201.17 82.32
  A 66.92 66.21 -90.0 0 0 134.96 15.40
  L 134.86 15.40
  A 66.92 66.21 90.0 0 0 68.65 82.32
  L 68.65 228.02
  A 0.74 0.74 0.0 0 0 69.39 228.76
  Z"
/>
<path fill="#f4f4f4" d="
  M 69.39 228.76
  A 0.74 0.74 0.0 0 1 68.65 228.02
  L 68.65 82.32
  A 66.92 66.21 90.0 0 1 134.86 15.40
  L 134.96 15.40
  A 66.92 66.21 90.0 0 1 201.17 82.32
  L 201.17 228.02
  A 0.74 0.74 0.0 0 1 200.43 228.76
  L 69.39 228.76
  Z
  M 72.79 225.90
  L 197.03 225.90
  A 1.35 1.35 0.0 0 0 198.38 224.55
  L 198.38 82.56
  A 64.28 63.47 -90.0 0 0 134.91 18.28
  L 134.91 18.28
  A 64.28 63.47 -90.0 0 0 71.44 82.56
  L 71.44 224.55
  A 1.35 1.35 0.0 0 0 72.79 225.90
  Z"
/>
<path fill="#030303" d="
  M 72.79 225.90
  A 1.35 1.35 0.0 0 1 71.44 224.55
  L 71.44 82.56
  A 64.28 63.47 -90.0 0 1 134.91 18.28
  L 134.91 18.28
  A 64.28 63.47 90.0 0 1 198.38 82.56
  L 198.38 224.55
  A 1.35 1.35 0.0 0 1 197.03 225.90
  L 72.79 225.90
  Z
  M 148.04 153.46
  C 154.57 153.28 160.86 153.60 167.38 152.93
  Q 167.99 152.87 168.10 153.47
  L 170.71 168.18
  A 1.60 1.55 49.5 0 1 170.66 168.98
  L 170.52 169.44
  Q 170.34 170.01 170.94 170.01
  L 176.46 170.00
  Q 177.44 170.00 177.58 170.96
  L 177.63 171.25
  Q 177.81 172.49 176.56 172.49
  L 167.90 172.49
  Q 167.28 172.49 167.40 173.11
  L 176.86 222.23
  A 0.64 0.64 0.0 0 0 177.49 222.75
  L 194.71 222.75
  A 0.39 0.38 0.0 0 0 195.10 222.37
  Q 195.07 151.86 195.12 81.37
  C 195.14 48.65 168.99 22.73 136.48 21.37
  A 0.38 0.37 -88.6 0 0 136.09 21.75
  L 136.14 54.01
  Q 136.14 54.38 136.51 54.44
  Q 155.42 57.59 157.22 76.69
  Q 157.35 78.02 156.01 78.02
  L 113.27 78.04
  Q 112.71 78.04 112.69 77.48
  C 112.38 65.41 121.32 55.71 133.28 54.59
  A 0.37 0.36 87.5 0 0 133.61 54.22
  L 133.61 21.98
  A 0.55 0.55 0.0 0 0 133.05 21.43
  C 105.64 22.30 81.98 41.71 76.07 68.55
  Q 74.74 74.63 74.74 85.56
  Q 74.73 154.01 74.75 222.27
  A 0.49 0.49 0.0 0 0 75.24 222.76
  L 90.76 222.75
  Q 91.28 222.75 91.38 222.24
  L 100.90 173.00
  A 0.42 0.42 0.0 0 0 100.49 172.50
  L 92.97 172.49
  Q 91.95 172.49 92.04 171.47
  L 92.09 171.01
  Q 92.18 169.96 93.24 169.97
  L 102.01 170.05
  Q 102.94 170.06 102.20 169.50
  Q 99.00 167.06 99.19 162.95
  A 0.53 0.52 -88.2 0 1 99.71 162.45
  C 103.63 162.46 109.93 161.49 113.22 163.92
  Q 114.31 164.73 113.93 166.04
  Q 113.46 167.62 111.79 167.55
  Q 110.70 167.51 109.84 168.18
  L 108.49 169.23
  Q 107.49 170.00 108.75 170.00
  L 147.01 169.99
  Q 147.52 169.99 147.52 169.49
  L 147.50 154.01
  Q 147.50 153.48 148.04 153.46
  Z
  M 154.66 75.05
  C 151.29 51.13 117.86 51.34 115.28 74.99
  Q 115.22 75.52 115.75 75.52
  L 154.24 75.54
  Q 154.73 75.54 154.66 75.05
  Z
  M 166.6726 155.7532
  A 0.85 0.85 0.0 0 0 165.6891 155.0620
  L 165.3739 155.1170
  A 0.85 0.85 0.0 0 0 164.6827 156.1005
  L 166.6874 167.5868
  A 0.85 0.85 0.0 0 0 167.6709 168.2780
  L 167.9861 168.2230
  A 0.85 0.85 0.0 0 0 168.6773 167.2395
  L 166.6726 155.7532
  Z
  M 151.4894 156.0363
  A 0.81 0.81 0.0 0 0 150.6766 155.2291
  L 150.1366 155.2310
  A 0.81 0.81 0.0 0 0 149.3294 156.0438
  L 149.3706 167.8437
  A 0.81 0.81 0.0 0 0 150.1834 168.6509
  L 150.7234 168.6490
  A 0.81 0.81 0.0 0 0 151.5306 167.8362
  L 151.4894 156.0363
  Z
  M 156.5508 155.6917
  A 0.43 0.43 0.0 0 0 156.1215 155.2609
  L 155.1015 155.2591
  A 0.43 0.43 0.0 0 0 154.6708 155.6884
  L 154.6492 168.0483
  A 0.43 0.43 0.0 0 0 155.0785 168.4791
  L 156.0985 168.4809
  A 0.43 0.43 0.0 0 0 156.5292 168.0516
  L 156.5508 155.6917
  Z
  M 161.76 156.03
  A 0.80 0.80 0.0 0 0 160.96 155.23
  L 160.52 155.23
  A 0.80 0.80 0.0 0 0 159.72 156.03
  L 159.72 167.85
  A 0.80 0.80 0.0 0 0 160.52 168.65
  L 160.96 168.65
  A 0.80 0.80 0.0 0 0 161.76 167.85
  L 161.76 156.03
  Z
  M 164.12 169.98
  L 164.87 169.90
  A 0.19 0.19 0.0 0 0 165.04 169.69
  L 165.02 169.53
  A 5.59 0.51 83.5 0 0 163.88 164.03
  L 163.76 164.05
  A 5.59 0.51 83.5 0 0 163.89 169.66
  L 163.91 169.82
  A 0.19 0.19 0.0 0 0 164.12 169.98
  Z
  M 101.95 164.28
  A 0.86 0.86 0.0 0 0 101.28 165.68
  L 103.12 167.97
  A 0.86 0.86 0.0 0 0 103.82 168.29
  L 106.69 168.19
  A 0.86 0.86 0.0 0 0 107.32 167.89
  L 109.18 165.72
  A 0.86 0.86 0.0 0 0 108.54 164.30
  L 101.95 164.28
  Z
  M 103.83 172.49
  A 0.41 0.41 0.0 0 0 103.43 172.82
  L 93.97 222.27
  A 0.41 0.41 0.0 0 0 94.38 222.76
  L 173.83 222.76
  A 0.41 0.41 0.0 0 0 174.23 222.27
  L 164.91 172.82
  A 0.41 0.41 0.0 0 0 164.51 172.49
  L 103.83 172.49
  Z"
/>
<path fill="#f4f4f4" d="
  M 147.50 154.01
  L 147.52 169.49
  Q 147.52 169.99 147.01 169.99
  L 108.75 170.00
  Q 107.49 170.00 108.49 169.23
  L 109.84 168.18
  Q 110.70 167.51 111.79 167.55
  Q 113.46 167.62 113.93 166.04
  Q 114.31 164.73 113.22 163.92
  C 109.93 161.49 103.63 162.46 99.71 162.45
  A 0.53 0.52 -88.2 0 0 99.19 162.95
  Q 99.00 167.06 102.20 169.50
  Q 102.94 170.06 102.01 170.05
  L 93.24 169.97
  Q 92.18 169.96 92.09 171.01
  L 92.04 171.47
  Q 91.95 172.49 92.97 172.49
  L 100.49 172.50
  A 0.42 0.42 0.0 0 1 100.90 173.00
  L 91.38 222.24
  Q 91.28 222.75 90.76 222.75
  L 75.24 222.76
  A 0.49 0.49 0.0 0 1 74.75 222.27
  Q 74.73 154.01 74.74 85.56
  Q 74.74 74.63 76.07 68.55
  C 81.98 41.71 105.64 22.30 133.05 21.43
  A 0.55 0.55 0.0 0 1 133.61 21.98
  L 133.61 54.22
  A 0.37 0.36 87.5 0 1 133.28 54.59
  C 121.32 55.71 112.38 65.41 112.69 77.48
  Q 112.71 78.04 113.27 78.04
  L 156.01 78.02
  Q 157.35 78.02 157.22 76.69
  Q 155.42 57.59 136.51 54.44
  Q 136.14 54.38 136.14 54.01
  L 136.09 21.75
  A 0.38 0.37 -88.6 0 1 136.48 21.37
  C 168.99 22.73 195.14 48.65 195.12 81.37
  Q 195.07 151.86 195.10 222.37
  A 0.39 0.38 0.0 0 1 194.71 222.75
  L 177.49 222.75
  A 0.64 0.64 0.0 0 1 176.86 222.23
  L 167.40 173.11
  Q 167.28 172.49 167.90 172.49
  L 176.56 172.49
  Q 177.81 172.49 177.63 171.25
  L 177.58 170.96
  Q 177.44 170.00 176.46 170.00
  L 170.94 170.01
  Q 170.34 170.01 170.52 169.44
  L 170.66 168.98
  A 1.60 1.55 49.5 0 0 170.71 168.18
  L 168.10 153.47
  Q 167.99 152.87 167.38 152.93
  C 160.86 153.60 154.57 153.28 148.04 153.46
  Q 147.50 153.48 147.50 154.01
  Z
  M 104.69 158.01
  C 104.29 156.36 103.86 154.73 103.47 153.06
  Q 103.28 152.25 103.27 153.00
  Q 103.23 155.46 103.88 157.84
  A 1.34 1.30 -39.4 0 1 103.77 158.79
  L 103.16 159.93
  Q 102.64 160.91 103.73 160.70
  Q 105.27 160.40 104.69 158.01
  Z
  M 106.34 155.31
  Q 107.32 158.97 105.90 159.96
  Q 105.69 160.11 105.71 160.36
  Q 105.72 160.55 105.86 160.68
  Q 106.13 160.93 106.49 160.84
  C 109.18 160.17 107.75 156.39 106.68 155.13
  Q 106.12 154.47 106.34 155.31
  Z"
/>
<path fill="#f4f4f4" d="
  M 115.28 74.99
  C 117.86 51.34 151.29 51.13 154.66 75.05
  Q 154.73 75.54 154.24 75.54
  L 115.75 75.52
  Q 115.22 75.52 115.28 74.99
  Z"
/>
<path fill="#030303" d="
  M 103.47 153.06
  C 103.86 154.73 104.29 156.36 104.69 158.01
  Q 105.27 160.40 103.73 160.70
  Q 102.64 160.91 103.16 159.93
  L 103.77 158.79
  A 1.34 1.30 -39.4 0 0 103.88 157.84
  Q 103.23 155.46 103.27 153.00
  Q 103.28 152.25 103.47 153.06
  Z"
/>
<path fill="#030303" d="
  M 106.34 155.31
  Q 106.12 154.47 106.68 155.13
  C 107.75 156.39 109.18 160.17 106.49 160.84
  Q 106.13 160.93 105.86 160.68
  Q 105.72 160.55 105.71 160.36
  Q 105.69 160.11 105.90 159.96
  Q 107.32 158.97 106.34 155.31
  Z"
/>
<rect fill="#f4f4f4" x="-1.01" y="-6.68" transform="translate(166.68,161.67) rotate(-9.9)" width="2.02" height="13.36" rx="0.85"/>
<rect fill="#f4f4f4" x="-1.08" y="-6.71" transform="translate(150.43,161.94) rotate(-0.2)" width="2.16" height="13.42" rx="0.81"/>
<rect fill="#f4f4f4" x="-0.94" y="-6.61" transform="translate(155.60,161.87) rotate(0.1)" width="1.88" height="13.22" rx="0.43"/>
<rect fill="#f4f4f4" x="159.72" y="155.23" width="2.04" height="13.42" rx="0.80"/>
<path fill="#f4f4f4" d="
  M 164.12 169.98
  A 0.19 0.19 0.0 0 1 163.91 169.82
  L 163.89 169.66
  A 5.59 0.51 83.5 0 1 163.76 164.05
  L 163.88 164.03
  A 5.59 0.51 83.5 0 1 165.02 169.53
  L 165.04 169.69
  A 0.19 0.19 0.0 0 1 164.87 169.90
  L 164.12 169.98
  Z"
/>
<path fill="#f4f4f4" d="
  M 101.95 164.28
  L 108.54 164.30
  A 0.86 0.86 0.0 0 1 109.18 165.72
  L 107.32 167.89
  A 0.86 0.86 0.0 0 1 106.69 168.19
  L 103.82 168.29
  A 0.86 0.86 0.0 0 1 103.12 167.97
  L 101.28 165.68
  A 0.86 0.86 0.0 0 1 101.95 164.28
  Z"
/>
<path fill="#f4f4f4" d="
  M 103.83 172.49
  L 164.51 172.49
  A 0.41 0.41 0.0 0 1 164.91 172.82
  L 174.23 222.27
  A 0.41 0.41 0.0 0 1 173.83 222.76
  L 94.38 222.76
  A 0.41 0.41 0.0 0 1 93.97 222.27
  L 103.43 172.82
  A 0.41 0.41 0.0 0 1 103.83 172.49
  Z"
/>
</svg>
