<?xml version="1.0" encoding="UTF-8" standalone="no"?>
<!DOCTYPE svg PUBLIC "-//W3C//DTD SVG 1.1//EN" "http://www.w3.org/Graphics/SVG/1.1/DTD/svg11.dtd">
<svg xmlns="http://www.w3.org/2000/svg" version="1.1" viewBox="0.00 0.00 394.00 339.00">
<g stroke-width="2.00" fill="none" stroke-linecap="butt">
<path stroke="#9f9f9f" vector-effect="non-scaling-stroke" d="
  M 179.25 225.86
  L 234.82 236.10
  Q 235.43 236.21 235.43 236.83
  L 235.42 264.80
  A 2.22 2.20 -83.2 0 0 237.10 266.95
  Q 243.53 268.53 250.42 269.90
  Q 252.50 270.32 254.54 269.68
  Q 283.64 260.60 312.75 251.54
  Q 314.24 251.07 315.73 250.42
  A 0.97 0.96 -12.4 0 0 316.30 249.54
  L 316.31 66.48
  A 1.99 1.99 0.0 0 0 314.36 64.49
  L 90.52 59.46
  A 1.26 1.25 -89.1 0 0 89.24 60.71
  Q 89.21 189.46 88.99 318.50
  Q 88.99 319.89 89.68 320.43
  A 2.08 1.33 48.4 0 0 91.28 320.88
  L 177.09 293.77
  A 2.45 2.44 -8.8 0 0 178.80 291.44
  L 178.80 226.24
  Q 178.80 225.77 179.25 225.86"
/>
<path stroke="#9f9f9f" vector-effect="non-scaling-stroke" d="
  M 243.34 142.37
  C 242.85 142.37 242.31 141.95 241.75 141.91
  Q 167.24 136.54 92.73 131.15
  Q 92.31 131.12 92.31 131.54
  L 92.31 143.71
  Q 92.31 144.13 92.73 144.17
  Q 125.17 147.35 157.62 150.39
  Q 162.62 150.86 167.61 150.32
  Q 205.48 146.26 243.35 142.30
  Q 243.37 142.30 243.37 142.32
  Q 243.37 142.33 243.37 142.33
  Q 243.38 142.37 243.34 142.37"
/>
<path stroke="#9f9f9f" vector-effect="non-scaling-stroke" d="
  M 253.77 265.90
  A 0.34 0.34 0.0 0 0 254.21 266.22
  L 261.76 263.84
  A 0.34 0.34 0.0 0 0 262.00 263.51
  L 262.00 144.01
  A 0.34 0.34 0.0 0 0 261.62 143.68
  L 254.28 144.54
  A 0.34 0.34 0.0 0 0 253.98 144.88
  L 253.77 265.90"
/>
<path stroke="#9f9f9f" vector-effect="non-scaling-stroke" d="
  M 179.07 152.48
  A 0.30 0.30 0.0 0 0 178.80 152.78
  L 178.80 174.42
  A 0.30 0.30 0.0 0 0 179.14 174.72
  L 250.44 164.48
  A 0.30 0.30 0.0 0 0 250.70 164.18
  L 250.69 145.22
  A 0.30 0.30 0.0 0 0 250.36 144.93
  L 179.07 152.48"
/>
<path stroke="#9f9f9f" vector-effect="non-scaling-stroke" d="
  M 144.33 174.80
  A 0.33 0.33 0.0 0 0 144.70 174.47
  L 144.70 152.87
  A 0.33 0.33 0.0 0 0 144.40 152.54
  L 92.67 147.57
  A 0.33 0.33 0.0 0 0 92.31 147.90
  L 92.31 167.76
  A 0.33 0.33 0.0 0 0 92.60 168.09
  L 144.33 174.80"
/>
<path stroke="#9f9f9f" vector-effect="non-scaling-stroke" d="
  M 148.00 290.70
  A 0.33 0.33 0.0 0 0 148.24 291.02
  L 160.27 294.31
  A 0.33 0.33 0.0 0 0 160.69 293.99
  L 160.69 154.42
  A 0.33 0.33 0.0 0 0 160.39 154.09
  L 148.36 152.90
  A 0.33 0.33 0.0 0 0 148.00 153.22
  L 148.00 290.70"
/>
<path stroke="#9f9f9f" vector-effect="non-scaling-stroke" d="
  M 163.80 293.97
  A 0.30 0.30 0.0 0 0 164.19 294.26
  L 175.15 290.86
  A 0.30 0.30 0.0 0 0 175.36 290.57
  L 175.49 153.18
  A 0.30 0.30 0.0 0 0 175.16 152.89
  L 164.07 154.07
  A 0.30 0.30 0.0 0 0 163.80 154.37
  L 163.80 293.97"
/>
<path stroke="#9f9f9f" vector-effect="non-scaling-stroke" d="
  M 250.40 168.30
  A 0.32 0.32 0.0 0 0 250.04 167.98
  L 238.86 169.55
  A 0.32 0.32 0.0 0 0 238.58 169.87
  L 238.58 263.55
  A 0.32 0.32 0.0 0 0 238.83 263.87
  L 250.40 266.48
  A 0.32 0.32 0.0 0 0 250.79 266.17
  L 250.40 168.30"
/>
<path stroke="#9f9f9f" vector-effect="non-scaling-stroke" d="
  M 92.50 209.86
  A 0.18 0.17 5.5 0 0 92.29 210.03
  L 92.29 316.49
  Q 92.29 316.98 92.76 316.83
  L 155.04 297.15
  Q 156.32 296.74 155.02 296.39
  L 146.49 294.10
  A 2.42 2.42 0.0 0 1 144.70 291.76
  L 144.70 219.97
  Q 144.70 219.49 144.23 219.41
  L 92.50 209.86"
/>
<path stroke="#9f9f9f" vector-effect="non-scaling-stroke" d="
  M 306.35 249.28
  L 265.68 241.79
  A 0.32 0.31 4.7 0 0 265.31 242.10
  L 265.31 262.23
  Q 265.31 262.75 265.81 262.59
  L 306.88 249.77
  A 0.32 0.32 0.0 0 0 307.07 249.32
  Q 306.91 249.03 306.76 249.17
  Q 306.58 249.32 306.35 249.28"
/>
</g>
<path fill="#f3f3f3" d="
  M 0.00 0.00
  L 394.00 0.00
  L 394.00 339.00
  L 0.00 339.00
  L 0.00 0.00
  Z
  M 179.25 225.86
  L 234.82 236.10
  Q 235.43 236.21 235.43 236.83
  L 235.42 264.80
  A 2.22 2.20 -83.2 0 0 237.10 266.95
  Q 243.53 268.53 250.42 269.90
  Q 252.50 270.32 254.54 269.68
  Q 283.64 260.60 312.75 251.54
  Q 314.24 251.07 315.73 250.42
  A 0.97 0.96 -12.4 0 0 316.30 249.54
  L 316.31 66.48
  A 1.99 1.99 0.0 0 0 314.36 64.49
  L 90.52 59.46
  A 1.26 1.25 -89.1 0 0 89.24 60.71
  Q 89.21 189.46 88.99 318.50
  Q 88.99 319.89 89.68 320.43
  A 2.08 1.33 48.4 0 0 91.28 320.88
  L 177.09 293.77
  A 2.45 2.44 -8.8 0 0 178.80 291.44
  L 178.80 226.24
  Q 178.80 225.77 179.25 225.86
  Z"
/>
<path fill="#4b4b4b" d="
  M 178.80 226.24
  L 178.80 291.44
  A 2.45 2.44 -8.8 0 1 177.09 293.77
  L 91.28 320.88
  A 2.08 1.33 48.4 0 1 89.68 320.43
  Q 88.99 319.89 88.99 318.50
  Q 89.21 189.46 89.24 60.71
  A 1.26 1.25 -89.1 0 1 90.52 59.46
  L 314.36 64.49
  A 1.99 1.99 0.0 0 1 316.31 66.48
  L 316.30 249.54
  A 0.97 0.96 -12.4 0 1 315.73 250.42
  Q 314.24 251.07 312.75 251.54
  Q 283.64 260.60 254.54 269.68
  Q 252.50 270.32 250.42 269.90
  Q 243.53 268.53 237.10 266.95
  A 2.22 2.20 -83.2 0 1 235.42 264.80
  L 235.43 236.83
  Q 235.43 236.21 234.82 236.10
  L 179.25 225.86
  Q 178.80 225.77 178.80 226.24
  Z
  M 243.34 142.37
  C 242.85 142.37 242.31 141.95 241.75 141.91
  Q 167.24 136.54 92.73 131.15
  Q 92.31 131.12 92.31 131.54
  L 92.31 143.71
  Q 92.31 144.13 92.73 144.17
  Q 125.17 147.35 157.62 150.39
  Q 162.62 150.86 167.61 150.32
  Q 205.48 146.26 243.35 142.30
  Q 243.37 142.30 243.37 142.32
  Q 243.37 142.33 243.37 142.33
  Q 243.38 142.37 243.34 142.37
  Z
  M 253.77 265.90
  A 0.34 0.34 0.0 0 0 254.21 266.22
  L 261.76 263.84
  A 0.34 0.34 0.0 0 0 262.00 263.51
  L 262.00 144.01
  A 0.34 0.34 0.0 0 0 261.62 143.68
  L 254.28 144.54
  A 0.34 0.34 0.0 0 0 253.98 144.88
  L 253.77 265.90
  Z
  M 179.07 152.48
  A 0.30 0.30 0.0 0 0 178.80 152.78
  L 178.80 174.42
  A 0.30 0.30 0.0 0 0 179.14 174.72
  L 250.44 164.48
  A 0.30 0.30 0.0 0 0 250.70 164.18
  L 250.69 145.22
  A 0.30 0.30 0.0 0 0 250.36 144.93
  L 179.07 152.48
  Z
  M 144.33 174.80
  A 0.33 0.33 0.0 0 0 144.70 174.47
  L 144.70 152.87
  A 0.33 0.33 0.0 0 0 144.40 152.54
  L 92.67 147.57
  A 0.33 0.33 0.0 0 0 92.31 147.90
  L 92.31 167.76
  A 0.33 0.33 0.0 0 0 92.60 168.09
  L 144.33 174.80
  Z
  M 148.00 290.70
  A 0.33 0.33 0.0 0 0 148.24 291.02
  L 160.27 294.31
  A 0.33 0.33 0.0 0 0 160.69 293.99
  L 160.69 154.42
  A 0.33 0.33 0.0 0 0 160.39 154.09
  L 148.36 152.90
  A 0.33 0.33 0.0 0 0 148.00 153.22
  L 148.00 290.70
  Z
  M 163.80 293.97
  A 0.30 0.30 0.0 0 0 164.19 294.26
  L 175.15 290.86
  A 0.30 0.30 0.0 0 0 175.36 290.57
  L 175.49 153.18
  A 0.30 0.30 0.0 0 0 175.16 152.89
  L 164.07 154.07
  A 0.30 0.30 0.0 0 0 163.80 154.37
  L 163.80 293.97
  Z
  M 250.40 168.30
  A 0.32 0.32 0.0 0 0 250.04 167.98
  L 238.86 169.55
  A 0.32 0.32 0.0 0 0 238.58 169.87
  L 238.58 263.55
  A 0.32 0.32 0.0 0 0 238.83 263.87
  L 250.40 266.48
  A 0.32 0.32 0.0 0 0 250.79 266.17
  L 250.40 168.30
  Z
  M 92.50 209.86
  A 0.18 0.17 5.5 0 0 92.29 210.03
  L 92.29 316.49
  Q 92.29 316.98 92.76 316.83
  L 155.04 297.15
  Q 156.32 296.74 155.02 296.39
  L 146.49 294.10
  A 2.42 2.42 0.0 0 1 144.70 291.76
  L 144.70 219.97
  Q 144.70 219.49 144.23 219.41
  L 92.50 209.86
  Z
  M 306.35 249.28
  L 265.68 241.79
  A 0.32 0.31 4.7 0 0 265.31 242.10
  L 265.31 262.23
  Q 265.31 262.75 265.81 262.59
  L 306.88 249.77
  A 0.32 0.32 0.0 0 0 307.07 249.32
  Q 306.91 249.03 306.76 249.17
  Q 306.58 249.32 306.35 249.28
  Z"
/>
<path fill="#f3f3f3" d="
  M 241.75 141.91
  C 242.31 141.95 242.85 142.37 243.34 142.37
  Q 243.38 142.37 243.37 142.33
  Q 243.37 142.33 243.37 142.32
  Q 243.37 142.30 243.35 142.30
  Q 205.48 146.26 167.61 150.32
  Q 162.62 150.86 157.62 150.39
  Q 125.17 147.35 92.73 144.17
  Q 92.31 144.13 92.31 143.71
  L 92.31 131.54
  Q 92.31 131.12 92.73 131.15
  Q 167.24 136.54 241.75 141.91
  Z"
/>
<path fill="#f3f3f3" d="
  M 253.77 265.90
  L 253.98 144.88
  A 0.34 0.34 0.0 0 1 254.28 144.54
  L 261.62 143.68
  A 0.34 0.34 0.0 0 1 262.00 144.01
  L 262.00 263.51
  A 0.34 0.34 0.0 0 1 261.76 263.84
  L 254.21 266.22
  A 0.34 0.34 0.0 0 1 253.77 265.90
  Z"
/>
<path fill="#f3f3f3" d="
  M 179.07 152.48
  L 250.36 144.93
  A 0.30 0.30 0.0 0 1 250.69 145.22
  L 250.70 164.18
  A 0.30 0.30 0.0 0 1 250.44 164.48
  L 179.14 174.72
  A 0.30 0.30 0.0 0 1 178.80 174.42
  L 178.80 152.78
  A 0.30 0.30 0.0 0 1 179.07 152.48
  Z"
/>
<path fill="#f3f3f3" d="
  M 144.33 174.80
  L 92.60 168.09
  A 0.33 0.33 0.0 0 1 92.31 167.76
  L 92.31 147.90
  A 0.33 0.33 0.0 0 1 92.67 147.57
  L 144.40 152.54
  A 0.33 0.33 0.0 0 1 144.70 152.87
  L 144.70 174.47
  A 0.33 0.33 0.0 0 1 144.33 174.80
  Z"
/>
<path fill="#f3f3f3" d="
  M 148.00 290.70
  L 148.00 153.22
  A 0.33 0.33 0.0 0 1 148.36 152.90
  L 160.39 154.09
  A 0.33 0.33 0.0 0 1 160.69 154.42
  L 160.69 293.99
  A 0.33 0.33 0.0 0 1 160.27 294.31
  L 148.24 291.02
  A 0.33 0.33 0.0 0 1 148.00 290.70
  Z"
/>
<path fill="#f3f3f3" d="
  M 163.80 293.97
  L 163.80 154.37
  A 0.30 0.30 0.0 0 1 164.07 154.07
  L 175.16 152.89
  A 0.30 0.30 0.0 0 1 175.49 153.18
  L 175.36 290.57
  A 0.30 0.30 0.0 0 1 175.15 290.86
  L 164.19 294.26
  A 0.30 0.30 0.0 0 1 163.80 293.97
  Z"
/>
<path fill="#f3f3f3" d="
  M 250.40 168.30
  L 250.79 266.17
  A 0.32 0.32 0.0 0 1 250.40 266.48
  L 238.83 263.87
  A 0.32 0.32 0.0 0 1 238.58 263.55
  L 238.58 169.87
  A 0.32 0.32 0.0 0 1 238.86 169.55
  L 250.04 167.98
  A 0.32 0.32 0.0 0 1 250.40 168.30
  Z"
/>
<path fill="#f3f3f3" d="
  M 92.50 209.86
  L 144.23 219.41
  Q 144.70 219.49 144.70 219.97
  L 144.70 291.76
  A 2.42 2.42 0.0 0 0 146.49 294.10
  L 155.02 296.39
  Q 156.32 296.74 155.04 297.15
  L 92.76 316.83
  Q 92.29 316.98 92.29 316.49
  L 92.29 210.03
  A 0.18 0.17 5.5 0 1 92.50 209.86
  Z"
/>
<path fill="#f3f3f3" d="
  M 306.76 249.17
  Q 306.91 249.03 307.07 249.32
  A 0.32 0.32 0.0 0 1 306.88 249.77
  L 265.81 262.59
  Q 265.31 262.75 265.31 262.23
  L 265.31 242.10
  A 0.32 0.31 4.7 0 1 265.68 241.79
  L 306.35 249.28
  Q 306.58 249.32 306.76 249.17
  Z"
/>
</svg>
